<?xml version="1.0" standalone="no"?>
<!DOCTYPE svg PUBLIC "-//W3C//DTD SVG 20010904//EN"
 "http://www.w3.org/TR/2001/REC-SVG-20010904/DTD/svg10.dtd">
<svg version="1.0" xmlns="http://www.w3.org/2000/svg"
 width="182.000000pt" height="142.000000pt" viewBox="0 0 182.000000 142.000000"
 preserveAspectRatio="xMidYMid meet">
<metadata>
Created by potrace 1.10, written by Peter Selinger 2001-2011
</metadata>
<g transform="translate(0.000000,142.000000) scale(0.100000,-0.100000)"
fill="#000000" stroke="none">
<path d="M727 1300 c-86 -22 -120 -37 -166 -75 -35 -30 -56 -91 -46 -136 10
-45 25 -34 25 17 0 54 29 108 68 128 51 26 164 56 213 56 40 0 54 -5 84 -32
41 -35 80 -105 90 -161 12 -65 -2 -103 -66 -177 -33 -39 -66 -88 -74 -111 -18
-49 -19 -148 -4 -203 13 -48 75 -116 134 -147 25 -13 45 -27 45 -31 0 -5 -60
-8 -134 -8 -133 0 -135 0 -155 -26 -43 -55 -9 -144 55 -144 22 0 54 23 54 40
0 19 -13 40 -25 40 -23 0 -57 34 -50 51 5 14 25 16 125 15 83 -1 123 3 131 11
18 18 23 17 58 -13 50 -42 39 -115 -19 -129 -28 -7 -65 22 -52 40 7 11 58 45
66 45 15 0 -11 -33 -33 -42 -22 -9 -23 -12 -8 -15 25 -6 57 24 57 53 0 36 -15
37 -64 3 -52 -35 -61 -68 -24 -93 43 -30 101 -15 118 30 6 14 14 22 20 19 14
-9 12 -99 -2 -113 -16 -16 -57 -15 -109 4 -57 20 -172 21 -228 0 -140 -51
-166 27 -82 248 68 176 66 262 -7 367 -28 39 -52 61 -90 79 -28 14 -52 32 -52
40 0 9 13 42 30 75 16 33 30 68 30 78 0 28 -27 19 -49 -17 -28 -45 -69 -62
-115 -46 -19 6 -40 18 -47 26 -6 8 -35 21 -64 29 -66 20 -128 8 -198 -37 -84
-54 -86 -92 -8 -157 27 -23 74 -52 105 -66 78 -35 133 -33 207 6 48 26 62 29
73 19 10 -7 13 -22 10 -39 -3 -15 4 -81 15 -147 17 -96 29 -136 66 -208 30
-61 42 -94 36 -105 -19 -36 -22 -98 -7 -134 12 -29 23 -38 58 -48 24 -7 47
-19 52 -27 4 -8 27 -22 50 -33 76 -34 195 -20 251 30 11 10 37 24 57 30 30 10
39 19 47 46 10 38 -1 106 -24 139 -22 30 -19 35 19 29 67 -11 102 71 55 130
l-20 26 26 83 c14 45 29 101 32 125 3 24 10 46 14 49 5 3 9 18 9 34 0 16 7 36
16 44 14 14 20 13 67 -11 72 -37 151 -37 226 1 62 32 146 107 155 138 8 34
-58 91 -131 111 -55 16 -63 16 -114 1 -29 -9 -63 -22 -74 -30 -48 -34 -75 -11
-90 80 -4 24 -20 52 -43 78 -31 32 -52 43 -121 63 -110 32 -158 32 -205 0
l-38 -26 -31 20 c-49 29 -94 32 -180 11z m395 -11 c76 -17 151 -52 176 -84 15
-19 22 -42 22 -70 0 -26 6 -48 15 -55 20 -17 20 -41 -1 -33 -21 8 -61 -15 -68
-39 -8 -32 10 -64 47 -87 38 -23 143 -29 206 -11 70 20 102 80 64 122 -21 24
-59 23 -109 -4 -28 -14 -49 -19 -67 -14 -32 8 -36 26 -7 26 12 0 42 11 68 25
62 33 122 33 190 -1 90 -45 90 -75 -1 -142 -103 -77 -180 -90 -278 -46 -48 22
-62 24 -74 14 -9 -7 -25 -10 -41 -6 -33 9 -74 -26 -74 -61 0 -18 -5 -23 -25
-23 -14 0 -25 6 -25 13 0 25 59 96 85 103 14 3 25 13 25 21 0 24 -41 5 -80
-36 -32 -34 -70 -123 -70 -161 0 -21 31 -50 55 -50 24 0 45 18 45 39 0 11 -4
11 -20 -4 -32 -29 -78 6 -50 40 14 17 60 21 60 5 0 -5 14 -10 31 -10 29 0 30
-1 24 -32 -16 -75 -55 -173 -67 -170 -23 6 -46 33 -67 77 -36 76 -99 98 -146
50 -46 -45 -30 -92 61 -182 36 -35 64 -67 61 -69 -9 -10 -144 74 -170 105 -81
97 -72 268 18 351 91 83 108 176 55 289 -17 36 -28 71 -26 78 6 15 61 42 88
43 9 0 41 -5 70 -11z m-708 -264 c76 -40 112 -44 150 -14 29 23 34 10 11 -31
-8 -14 -14 -37 -15 -52 0 -23 7 -31 38 -43 50 -21 99 -70 129 -130 35 -68 33
-151 -4 -263 -16 -46 -33 -84 -38 -84 -21 -1 -78 156 -96 265 -10 61 -17 113
-14 115 2 2 11 -3 20 -12 18 -18 25 -19 49 -10 41 16 -5 90 -51 81 -15 -3 -27
1 -30 8 -9 26 -36 25 -87 -4 -67 -38 -96 -43 -153 -31 -52 12 -177 90 -194
122 -14 27 19 63 86 94 71 34 120 31 199 -11z m956 -15 c33 -26 84 -25 119 1
32 24 69 22 85 -3 36 -58 -130 -110 -234 -75 -41 14 -62 56 -40 81 17 21 40
20 70 -4z m-107 -147 c9 -9 -22 -43 -40 -43 -18 0 -17 15 3 34 17 17 27 20 37
9z m-633 -48 c6 -8 9 -19 5 -25 -8 -13 -40 3 -49 25 -7 20 27 20 44 0z m638
-7 c-7 -20 -34 -32 -54 -23 -17 7 -16 9 11 21 38 17 48 17 43 2z m-223 -124
c9 -4 27 -28 40 -54 13 -26 40 -60 59 -76 l36 -29 -18 -58 c-10 -32 -23 -59
-28 -59 -5 -1 -19 17 -32 39 -12 23 -41 58 -65 79 -50 45 -66 70 -67 106 0 44
34 67 75 52z m176 -208 c15 -33 4 -73 -22 -81 -32 -10 -37 5 -22 58 16 52 28
59 44 23z m-457 -134 c3 -10 20 -23 37 -29 27 -11 30 -15 19 -28 -25 -30 -80
6 -80 52 0 27 16 31 24 5z m241 -162 c4 -6 -25 -10 -80 -10 -55 0 -84 4 -80
10 3 6 39 10 80 10 41 0 77 -4 80 -10z m55 -30 c0 -19 -83 -50 -135 -50 -32 0
-67 9 -95 23 l-45 22 130 5 c72 3 133 7 138 8 4 1 7 -3 7 -8z"/>
<path d="M1069 1248 c-45 -37 -11 -98 54 -98 25 0 41 -8 60 -30 57 -64 130
-12 81 58 -34 48 -164 95 -195 70z m106 -32 c42 -18 85 -59 85 -81 0 -31 -31
-28 -65 5 -25 24 -43 33 -67 33 -39 0 -58 12 -58 38 0 15 7 19 35 19 20 0 51
-7 70 -14z"/>
<path d="M1110 1072 c-26 -13 -43 -33 -66 -80 -18 -37 -51 -82 -78 -106 -60
-56 -63 -96 -8 -125 17 -9 31 -9 56 -1 43 14 68 42 102 114 18 38 39 65 59 77
18 11 37 31 43 45 20 42 -17 93 -68 94 -3 0 -21 -8 -40 -18z m80 -27 c18 -22
5 -58 -30 -78 -20 -12 -43 -43 -65 -87 -40 -79 -89 -119 -125 -100 -38 20 -30
55 24 102 26 23 47 52 56 78 26 80 105 127 140 85z"/>
</g>
</svg>
